#define fixcursor.m_m.bm_width 16
#define fixcursor.m_m.bm_height 16
#define fixcursor.m_m.bm_x_hot 7
#define fixcursor.m_m.bm_y_hot 7
static unsigned char fixcursor.m_m.bm_bits[] = {
   0x04, 0x10, 0x06, 0x30, 0x07, 0x70, 0x88, 0x08, 0x80, 0x00, 0x80, 0x00,
   0x00, 0x00, 0x38, 0x0e, 0x00, 0x00, 0x80, 0x00, 0x80, 0x00, 0x88, 0x08,
   0x07, 0x70, 0x06, 0x30, 0x04, 0x10, 0x00, 0x00};
