#define fixcursor.x.bm_width 16
#define fixcursor.x.bm_height 16
#define fixcursor.x.bm_x_hot 7
#define fixcursor.x.bm_y_hot 7
static unsigned char fixcursor.x.bm_bits[] = {
   0xe0, 0x03, 0xc0, 0x01, 0x80, 0x00, 0x00, 0x00, 0x10, 0x04, 0x21, 0x42,
   0x43, 0x61, 0x07, 0x70, 0x43, 0x61, 0x21, 0x42, 0x10, 0x04, 0x00, 0x00,
   0x80, 0x00, 0xc0, 0x01, 0xe0, 0x03, 0x00, 0x00};
