/* XPM */
static char * image_xpm[] = {
/* width height ncolors cpp [x_hot y_hot] */
"64 64 56 1 0 0",
/* colors */
" 	c #636368686363",
".	s iconColor1	m black	c black",
"X	s iconColor2	m white	c white",
"o	c #6C6CBBBBD7D7",
"O	c #6A6AC3C3D1D1",
"+	c #6868CBCBCBCB",
"@	c #6F6FB3B3DCDC",
"#	c #6767D3D3C4C4",
"$	c #6767E0E0B7B7",
"%	c #6868E6E6B0B0",
"&	c #6767DADABEBE",
"*	c #F0F0FBFBF0F0",
"=	c #6A6AECECA9A9",
"-	c #7373AAAAE1E1",
";	c #7373F8F89494",
":	c #8080FDFD8282",
"?	c #7B7BFCFC8787",
">	c #D6D6B7B77171",
",	c #E5E58B8B8E8E",
"<	c #E6E67E7E9A9A",
"1	c #B0B0E8E86767",
"2	c #CDCDC7C76B6B",
"3	c #8585FDFD7C7C",
"4	c #6F6FF5F59B9B",
"5	c #6C6CF1F1A2A2",
"6	c #DADAB0B07575",
"7	c #9D9DF5F56C6C",
"8	c #E4E47474A7A7",
"9	c #E0E0A0A07E7E",
"0	c #C8C8CECE6969",
"q	c #7676FAFA8E8E",
"w	c #9191FBFB7373",
"e	c #7777A2A2E6E6",
"r	c #9797F8F86F6F",
"t	c #B6B6E2E26666",
"y	c #DDDDA8A87979",
"u	c #BCBCDCDC6666",
"i	c #8B8BFCFC7777",
"p	c #AAAAEDED6868",
"a	c #C2C2D5D56767",
"s	c #A3A3F1F16A6A",
"d	c #8585D7D7A3A3",
"f	c #D9D96666BFBF",
"g	c #AAAAAAAAAAAA",
"h	c #B9B96A6ADCDC",
"j	c #A2A2D3D38A8A",
"k	c #D2D2BFBF6D6D",
"l	c #E4E492928989",
"z	c #8A8AD9D99B9B",
"x	c #8E8E9595DCDC",
"c	c #E3E399998383",
"v	c #C8C86464D2D2",
"b	c #D6D66565C4C4",
"n	c #DDDD6969B9B9",
"m	c #E6E684849494",
"M	c #C3C36565D6D6",
/* pixels */
"              .....................................             ",
"              .....................................             ",
"              ....XXX....XXX..XXXX.....X.....XXX...             ",
"              ...X..X...X..X..X...X...XX....X...X..             ",
"              ..X......X......X...X..X.X........X..             ",
"             o..X......X......X...X....X........X..             ",
"            OO..X......X......X...X....X......XX...oo           ",
"           oO+..X......X......XXXX.....X........X..oo@          ",
"          oO+#..X......X......X........X........X..#O@@         ",
"         oooO#...X......X.....X........X....X...X..#+Oo@        ",
"        @oO++$....XXX....XXX..X........X.....XXX...%O+O@@       ",
"       @oOO+$%.....................................$&OOO@*      ",
"      @@oOO#&=.....................................%&#+Oo@      ",
"      -@OO+#$$$$&;:?>,<1234=%=$%$%$%==5:67890??q%&&&&&+oo-@     ",
"     @@oOOO&&#&$=%;?:??4=5==4==%%%%%===5%4?q:q;%%&&##+OOoo@-    ",
"     @oo+O##&&#&%%=;55=45555=%%$%%=%=%==55=554==&+#+##&O+o@@    ",
"    @oooO#&#$O#$=$%=5;w4===%%=4=4%=5==5=54:45===$&#+#++#O@o@-   ",
"   e@OoO+##+##&$%=%4??;555=555455=5555555=4q?4%=&&#+++#+OOo@-   ",
"   -@oo+$#%#+&$&$=4r1w44;45444=5545=5545=5531w4%$&$&+#&#&+o@@e  ",
"   -@oo#+&###&$$%5tyu;q45q?q;;4qq;;4qq?q5;;q6y15=$&#&##$+#Oo@-  ",
"  --@@O&####%=$%5r7w55q4q;;;;4;4;4;;;;4;q4;457wr5=$%$&+&&#+o@-  ",
"  -@@OO+#$&&&==%;5q44i4:?q;;?qqq?4qqq4??q;4?;5454%5%&##&&OOOo-@ ",
"  -@oO++#&$&$%%q5==5p:i76i:qq?iqqq:?q4:?2iq?u=%5%;$$$$$##O+O@@- ",
" --oooO+$&$&%==;==53qawu????q:q;?q?q:??:q73iq:5%=%=q%$##$+Oo@@- ",
" --oo@O#5%$&=;;$=5;4qq1qqq:??:?:::???q??qqyq?5:%%%45%$$%&#OO@-e*",
" e-ooO+#&=$$55%==rq4?sqwr??q3w?::?:iiq??7w?7q557==%5=&$=$#Oo@@-e",
" --@ooO&&$$%?;%=5q55?d?:q?:3:?:333:i?3q?;3q0q55q%%%:3$%&$$OOo@-e",
" ee@OoO$&%$$q4==535;?q;?::3?q333::q:?:33?qq??;5?4$$44$%&$$Ooo@-e",
" -@@oOO&&$$$;q$=5?4?;q442>3?w?:q??:3i33fuq4i:;%q4%%;q%$&&$oOOo@-",
" --OOoo##&&%?q&%5344;3;:i7:::q;45;q::33ip34?q4434%%;:=$&##OOoo@-",
" -@@OOO#&$#$3q%55t5=4:;q?1:q?;=%%=5;i?:u:qq344;w54%:3%&&&#O+Oo--",
" --;OOo#&&$%3:%;4y555a;;?g?3g;=g g4qh:?<?;;t5;=sq:$3w=#&&+OoO@@e",
" -@@OOo&&$#%3i%;5<555a;q:g??j=%g g%;k:39:q;t5;5s?q%iw%##&#OOO@-e",
" -@oOOO#&&&$:?%==a=45:4;:p???;=+O#=43?:7:q4:;;5s4;&q:$&&&#OoOo@e",
" -@OOoO#&&&%q:%=5i45;:4?:lq::?4%==4q:?qr1i;?q45i45%?:%&%&#OooO@-",
" e-oooO&&%$$5?$$4q5?;q=;723??qq4;;:::::uu?;::;=;5%%q?%$&&#+ooo-e",
" e-@ooO#&&$%;;=%=3=4?;;q?:i?::?q?q?;q:iq?q;;:;434%$q;$%$$$Ooo@@e",
" -@-ooO+#%$&q;===q=5qz4?:qq:3?qqqqq??i??q3;x?55q5%=qq&&&##O@oo@-",
" e-@@o++&%%$45%$%i:%qr??i?q;::??;q?:iq;;3iq7q=;7=%==4$&%&#OOo@-*",
" e-@@Oo#==#$%;;%==454;:q;??4;?:qq??qq;q:?47?q=q==%;5%$$=%+Oo@@- ",
"  e-O@O+$&&$$=$5%%5r;ti7i;qq;q;q;;q;?qqqqt31;35%5=5;%$#$&#oo@@e ",
"  e-@oO+##&&%$%4%=%5wq>1s0i;q?qqqqq;4;:sawi?t5%==q$%&$$##++O@@- ",
"  --@oo+#&&&$=$$;54=5i4wq;;;4;;4;;44?4;q?:4i;=5=;%=%$$&&##oO@-  ",
"   eo@o+#&&&$%&%5?q:4555;544445;45;54545;4;55:i3%%$$$&#&#+O@@-  ",
"   --@o#+##+#&$&%4ptp4;5543444;;4454;;3554?5u>1;%&&&&#&&#+Oo@   ",
"    -@&O##$+&&&#$%4s1745555%54455=%4455454;wt14=$$$$+#$#&OO@-   ",
"    -ooO++&#O+&$&%$4?;qq====%=%===%%===$5qq::;%$$$%##+$#+o@-    ",
"     -@Oo#+##O+#$&$%=4345%%$$==%5==%$%===;i4=%%$%&+#+##&OO@@    ",
"     -@ooO##+&++&$$==$=4?==%$%%$%%$$$%==;4=5==$$###+&#++O@o     ",
"      @@oO+#++#&&$%54q5==55=%%%%%%%=%===545544=$#&###+++o@@     ",
"       @@o++#&#+&=457p7w:34%%=%%$$%%%%5?wippr55%$&&#&#+Ooo      ",
"        @OO+&&#&&%4?:scvfb1y6i?;4;q3691nhvma:i;=%&#$#+OOo       ",
"        -oo+##%%$%=4:w:sk02tpr?;q?:7ut2>kt3i345=$%%$#+O@        ",
"         @oO+&$5;4;??q?:?q?:?;?qqqqq?::qq3:qq?4;q=%&+OO         ",
"          @O++&%5r7iru1p:;q44455=5554;q;?7p1s37w4%&++o          ",
"           *O++%=qw9lu2M9ku?4=455555qqtyyv>al,1;=%&OO           ",
"             O+#$=?i2l>a71ksiwi:3:3wwr211u>m6wq=%#OO            ",
"              ++#&0q37sp7rwq??:?qqq??:wrsu1ri?5%+OO             ",
"                ++%=;wtta733??qq;qq?33i30a1rq5%&O               ",
"                 O+#$43ryl>yc27w3w7acyyyl7:;5&+                 ",
"                   O+&%54q:3ws1psss7w33q;=%&#                   ",
"                      ###&%5$$=%==%=%%&$&&+                     ",
"                         e#&#$$&&$$&+##                         ",
"                                                                "};
